<svg xmlns="http://www.w3.org/2000/svg" xmlns:xlink="http://www.w3.org/1999/xlink" width="1024" zoomAndPan="magnify" viewBox="0 0 768 576" height="768" preserveAspectRatio="xMidYMid meet" version="1.0"><defs><g/><clipPath id="470598519d"><path d="M 35 101 L 356 101 L 356 454 L 35 454 Z M 35 101 " clip-rule="nonzero"/></clipPath><clipPath id="1cba6e3173"><path d="M 189.503906 28.640625 L 486.414062 275.6875 L 260.472656 547.230469 L -36.4375 300.183594 Z M 189.503906 28.640625 " clip-rule="nonzero"/></clipPath><clipPath id="b08f71f9f1"><path d="M 260.726562 547.351562 L -36.183594 300.300781 L 189.753906 28.757812 L 486.667969 275.804688 Z M 260.726562 547.351562 " clip-rule="nonzero"/></clipPath></defs><rect x="-76.8" width="921.6" fill="#ffffff" y="-57.6" height="691.2" fill-opacity="1"/><rect x="-76.8" width="921.6" fill="#ffffff" y="-57.6" height="691.2" fill-opacity="1"/><g clip-path="url(#470598519d)"><g clip-path="url(#1cba6e3173)"><g clip-path="url(#b08f71f9f1)"><path fill="#c1f136" d="M 325.164062 141.648438 L 268.257812 210.042969 C 231.234375 179.234375 175.949219 184.328125 145.117188 221.386719 C 114.28125 258.441406 119.324219 313.730469 156.347656 344.535156 C 180.792969 364.875 213.191406 369.554688 241.222656 359.707031 L 227.5 348.289062 C 218.777344 341.03125 220.539062 332.8125 231.660156 330.199219 L 336.765625 305.0625 C 347.890625 302.449219 356.46875 309.585938 355.921875 321 L 350.3125 428.925781 C 349.765625 440.335938 342.144531 443.679688 333.28125 436.304688 L 314.699219 420.84375 C 251.070312 466.207031 162.34375 465.265625 99.441406 412.929688 C 24.679688 350.722656 14.519531 239.359375 76.785156 164.53125 C 139.046875 89.699219 250.542969 79.558594 325.164062 141.648438 Z M 325.164062 141.648438 " fill-opacity="1" fill-rule="nonzero"/></g></g></g><g fill="#7bad66" fill-opacity="1"><g transform="translate(360.960835, 284.155983)"><g><path d="M 40.625 0 L 3.796875 0 L 3.796875 -142.875 L 40.625 -142.875 Z M 40.625 0 "/></g></g></g><g fill="#7bad66" fill-opacity="1"><g transform="translate(405.384782, 284.155983)"><g><path d="M 80.84375 -114.0625 L 59.03125 -114.0625 L 59.03125 0 L 22.21875 0 L 22.21875 -114.0625 L 0.40625 -114.0625 L 0.40625 -142.875 L 80.84375 -142.875 Z M 80.84375 -114.0625 "/></g></g></g><g fill="#7bad66" fill-opacity="1"><g transform="translate(358.328277, 437.822173)"><g><path d="M 70.109375 -135.484375 L 70.109375 -87.46875 C 67.097656 -87.769531 64.84375 -87.921875 63.34375 -87.921875 C 57.632812 -87.921875 53.351562 -86.226562 50.5 -82.84375 C 47.644531 -79.457031 46.21875 -75.515625 46.21875 -71.015625 L 46.21875 0 L 6.09375 0 L 6.09375 -132.09375 L 44.859375 -132.09375 L 44.859375 -115.1875 L 45.3125 -115.1875 C 46.507812 -120.144531 49.585938 -124.648438 54.546875 -128.703125 C 59.503906 -132.765625 64.691406 -135.023438 70.109375 -135.484375 Z M 70.109375 -135.484375 "/></g></g></g><g fill="#7bad66" fill-opacity="1"><g transform="translate(429.333853, 437.822173)"><g><path d="M 52.296875 -135.484375 C 60.566406 -135.484375 68.082031 -133.789062 74.84375 -130.40625 C 81.601562 -127.019531 86.972656 -122.097656 90.953125 -115.640625 C 94.941406 -109.179688 96.9375 -101.515625 96.9375 -92.640625 L 96.9375 -64.015625 L 45.078125 -64.015625 L 45.078125 -28.859375 C 45.078125 -23.597656 47.109375 -20.96875 51.171875 -20.96875 C 55.828125 -20.96875 58.15625 -23.894531 58.15625 -29.75 L 58.15625 -53.875 L 96.9375 -53.875 L 96.9375 -39.453125 C 96.9375 -26.523438 93.140625 -16.15625 85.546875 -8.34375 C 77.953125 -0.53125 66.867188 3.375 52.296875 3.375 C 36.972656 3.375 25.25 -0.492188 17.125 -8.234375 C 9.007812 -15.972656 4.953125 -26.378906 4.953125 -39.453125 L 4.953125 -92.640625 C 4.953125 -105.867188 9.082031 -116.316406 17.34375 -123.984375 C 25.613281 -131.648438 37.265625 -135.484375 52.296875 -135.484375 Z M 45.078125 -103.25 L 45.078125 -85.65625 L 58.15625 -85.65625 L 58.15625 -102.34375 C 58.15625 -108.207031 55.828125 -111.140625 51.171875 -111.140625 C 47.109375 -111.140625 45.078125 -108.507812 45.078125 -103.25 Z M 45.078125 -103.25 "/></g></g></g><g fill="#7bad66" fill-opacity="1"><g transform="translate(529.417877, 437.822173)"><g><path d="M 52.296875 -135.484375 C 60.566406 -135.484375 68.082031 -133.789062 74.84375 -130.40625 C 81.601562 -127.019531 86.972656 -122.097656 90.953125 -115.640625 C 94.941406 -109.179688 96.9375 -101.515625 96.9375 -92.640625 L 96.9375 -64.015625 L 45.078125 -64.015625 L 45.078125 -28.859375 C 45.078125 -23.597656 47.109375 -20.96875 51.171875 -20.96875 C 55.828125 -20.96875 58.15625 -23.894531 58.15625 -29.75 L 58.15625 -53.875 L 96.9375 -53.875 L 96.9375 -39.453125 C 96.9375 -26.523438 93.140625 -16.15625 85.546875 -8.34375 C 77.953125 -0.53125 66.867188 3.375 52.296875 3.375 C 36.972656 3.375 25.25 -0.492188 17.125 -8.234375 C 9.007812 -15.972656 4.953125 -26.378906 4.953125 -39.453125 L 4.953125 -92.640625 C 4.953125 -105.867188 9.082031 -116.316406 17.34375 -123.984375 C 25.613281 -131.648438 37.265625 -135.484375 52.296875 -135.484375 Z M 45.078125 -103.25 L 45.078125 -85.65625 L 58.15625 -85.65625 L 58.15625 -102.34375 C 58.15625 -108.207031 55.828125 -111.140625 51.171875 -111.140625 C 47.109375 -111.140625 45.078125 -108.507812 45.078125 -103.25 Z M 45.078125 -103.25 "/></g></g></g><g fill="#7bad66" fill-opacity="1"><g transform="translate(629.501914, 437.822173)"><g><path d="M 71.015625 -135.484375 C 80.328125 -135.484375 87.195312 -132.328125 91.625 -126.015625 C 96.0625 -119.703125 98.28125 -111.4375 98.28125 -101.21875 L 98.28125 0 L 58.15625 0 L 58.15625 -99.40625 C 58.15625 -101.363281 57.703125 -103.351562 56.796875 -105.375 C 55.898438 -107.40625 54.25 -108.421875 51.84375 -108.421875 C 48.09375 -108.421875 46.21875 -105.492188 46.21875 -99.640625 L 46.21875 0 L 6.09375 0 L 6.09375 -132.09375 L 46.21875 -132.09375 L 46.21875 -121.953125 L 46.65625 -121.953125 C 48.757812 -125.859375 51.988281 -129.085938 56.34375 -131.640625 C 60.707031 -134.203125 65.597656 -135.484375 71.015625 -135.484375 Z M 71.015625 -135.484375 "/></g></g></g></svg>